<?xml version="1.0" encoding="UTF-8"?>
<!-- Generated by Pixelmator Pro 3.7.1 -->
<svg width="177" height="24" viewBox="0 0 177 24" xmlns="http://www.w3.org/2000/svg">
    <text id="API" xml:space="preserve" x="119" y="17" font-family="Arial" font-size="16" font-weight="700" fill="#1eb100" letter-spacing="0.8">API</text>
    <g id="Group-copy">
        <g id="Group">
            <path id="Path" fill="#ffffff" stroke="none" d="M 38.896252 6.816231 L 38.896252 6.816231 C 40.109491 6.816231 41.086711 7.266632 41.827911 8.167434 C 42.570463 9.068236 42.941738 10.406589 42.941738 12.182492 L 42.941738 12.182492 C 42.941738 13.359215 42.768612 14.349961 42.422359 15.154731 C 42.077457 15.960853 41.598653 16.56815 40.985947 16.976622 C 40.371887 17.385093 39.65571 17.589329 38.837414 17.589329 L 38.837414 17.589329 C 38.339675 17.589329 37.898741 17.522377 37.514614 17.388474 C 37.131842 17.254571 36.805876 17.082121 36.536716 16.871122 C 36.268912 16.660124 36.038979 16.432894 35.846916 16.189434 L 35.846916 16.189434 L 35.694752 16.189434 C 35.744798 16.42072 35.78267 16.679735 35.808369 16.966476 C 35.834067 17.25457 35.846916 17.526434 35.846916 17.782068 L 35.846916 17.782068 L 35.846916 22.000008 L 33.430576 22.000008 L 33.430576 7.006943 L 35.386372 7.006943 L 35.73127 8.386548 L 35.846916 8.386548 C 36.038979 8.093045 36.272294 7.827944 36.546864 7.591248 C 36.82143 7.354549 37.153482 7.165867 37.543018 7.025202 C 37.933905 6.885888 38.384983 6.816231 38.896252 6.816231 Z M 38.204418 8.769998 L 38.204418 8.769998 C 37.643108 8.769998 37.189326 8.88226 36.843071 9.106784 C 36.498169 9.329954 36.249299 9.671474 36.096462 10.131342 C 35.943623 10.592564 35.860441 11.168077 35.846916 11.85788 L 35.846916 11.85788 L 35.846916 12.164233 C 35.846916 12.905433 35.92063 13.531665 36.068058 14.042932 C 36.214135 14.554197 36.463005 14.944409 36.814667 15.213567 C 37.166331 15.481373 37.642431 15.615276 38.242966 15.615276 L 38.242966 15.615276 C 38.754232 15.615276 39.172848 15.47461 39.498814 15.193278 C 39.82478 14.911947 40.067562 14.512267 40.227161 13.994239 C 40.386763 13.477563 40.466564 12.861474 40.466564 12.145973 L 40.466564 12.145973 C 40.466564 11.072046 40.284646 10.240901 39.920811 9.65254 C 39.556973 9.064178 38.984842 8.769998 38.204418 8.769998 Z M 45.433144 7.006943 L 47.849483 7.006943 L 47.849483 17.398617 L 45.433144 17.398617 L 45.433144 7.006943 Z M 46.640301 3 L 46.640301 3 C 46.998727 3 47.311844 3.092649 47.579651 3.277948 C 47.848806 3.46325 47.983383 3.792597 47.983383 4.265991 L 47.983383 4.265991 C 47.983383 4.725859 47.848806 5.05453 47.579651 5.252005 C 47.311844 5.45083 46.998727 5.550243 46.640301 5.550243 L 46.640301 5.550243 C 46.2697 5.550243 45.953879 5.45083 45.692837 5.252005 C 45.430439 5.05453 45.29924 4.725859 45.29924 4.265991 L 45.29924 4.265991 C 45.29924 3.792597 45.430439 3.46325 45.692837 3.277948 C 45.953879 3.092649 46.2697 3 46.640301 3 Z M 56.496365 6.816231 L 56.496365 6.816231 C 57.658207 6.816231 58.568476 7.116498 59.227173 7.717033 C 59.885867 8.317568 60.215214 9.288702 60.215214 10.630437 L 60.215214 10.630437 L 60.215214 17.398617 L 57.798874 17.398617 L 57.798874 11.10924 C 57.798874 10.330169 57.645358 9.745866 57.338326 9.35633 C 57.031298 8.965442 56.545732 8.769998 55.881626 8.769998 L 55.881626 8.769998 C 54.910493 8.769998 54.245714 9.073646 53.887287 9.680943 C 53.530211 10.28824 53.351673 11.167401 53.351673 12.318425 L 53.351673 12.318425 L 53.351673 17.398617 L 50.935337 17.398617 L 50.935337 7.006943 L 52.795773 7.006943 L 53.140678 8.36829 L 53.274578 8.36829 C 53.504513 8.009861 53.785844 7.71568 54.118572 7.485746 C 54.449947 7.255813 54.820546 7.086744 55.23037 6.978539 C 55.638842 6.870333 56.060841 6.816231 56.496365 6.816231 Z M 66.733849 6.816231 L 66.733849 6.816231 C 67.38578 6.816231 67.973465 6.944047 68.496902 7.19968 C 69.021693 7.455313 69.462626 7.838763 69.819702 8.350028 L 69.819702 8.350028 L 69.915054 8.350028 L 70.146339 7.006943 L 72.158936 7.006943 L 72.158936 17.475714 C 72.158936 18.459021 71.973638 19.286107 71.603043 19.956974 C 71.232442 20.627841 70.676542 21.136401 69.935341 21.482656 C 69.194145 21.827557 68.267647 22.000008 67.155846 22.000008 L 67.155846 22.000008 C 66.413292 22.000008 65.7289 21.951992 65.102669 21.855961 C 64.476438 21.75993 63.882666 21.596947 63.321354 21.367014 L 63.321354 21.367014 L 63.321354 19.372671 C 63.908362 19.628304 64.5373 19.826454 65.208168 19.967119 C 65.880389 20.107785 66.580335 20.178118 67.308006 20.178118 L 67.308006 20.178118 C 68.100604 20.178118 68.704519 19.95427 69.119751 19.506575 C 69.534988 19.060231 69.742607 18.421149 69.742607 17.589329 L 69.742607 17.589329 L 69.742607 17.321522 C 69.742607 17.129459 69.752075 16.905612 69.771011 16.649981 C 69.791295 16.394348 69.807526 16.190111 69.819702 16.037271 L 69.819702 16.037271 L 69.742607 16.037271 C 69.385531 16.574236 68.95136 16.967154 68.440094 17.216024 C 67.928828 17.464894 67.340467 17.589329 66.675011 17.589329 L 66.675011 17.589329 C 65.410372 17.589329 64.420303 17.116611 63.704803 16.171175 C 62.987951 15.22574 62.629524 13.909029 62.629524 12.221041 L 62.629524 12.221041 C 62.629524 10.534404 62.994038 9.211605 63.723064 8.252645 C 64.452091 7.295035 65.455686 6.816231 66.733849 6.816231 Z M 67.366844 8.790287 L 67.366844 8.790287 C 66.879926 8.790287 66.467397 8.921484 66.129257 9.183878 C 65.791117 9.444922 65.535484 9.831077 65.362358 10.342341 C 65.189232 10.853607 65.102669 11.492689 65.102669 12.259588 L 65.102669 12.259588 C 65.102669 13.384914 65.294731 14.234994 65.678856 14.80983 C 66.061628 15.384665 66.636464 15.672083 67.403366 15.672083 L 67.403366 15.672083 C 67.838888 15.672083 68.210162 15.617981 68.517189 15.509776 C 68.822868 15.401572 69.075122 15.222359 69.273949 14.972136 C 69.471418 14.723266 69.621549 14.404063 69.724342 14.014526 C 69.825783 13.624991 69.876503 13.154979 69.876503 12.604489 L 69.876503 12.604489 L 69.876503 12.241328 C 69.876503 11.41086 69.787237 10.742698 69.608704 10.236843 C 69.430166 9.73234 69.158979 9.365122 68.795143 9.135188 C 68.429949 8.905254 67.95385 8.790287 67.366844 8.790287 Z M 87.152008 6.816231 L 87.152008 6.816231 C 88.327377 6.816231 89.211947 7.116498 89.805717 7.717033 C 90.400846 8.317568 90.69841 9.288702 90.69841 10.630437 L 90.69841 10.630437 L 90.69841 17.398617 L 88.282066 17.398617 L 88.282066 11.090981 C 88.282066 10.324083 88.141401 9.745866 87.860069 9.35633 C 87.578738 8.965442 87.131719 8.769998 86.519012 8.769998 L 86.519012 8.769998 C 85.675018 8.769998 85.074486 9.045243 84.717415 9.595734 C 84.358986 10.14487 84.179771 10.943553 84.179771 11.991783 L 84.179771 11.991783 L 84.179771 17.398617 L 81.763435 17.398617 L 81.763435 11.090981 C 81.763435 10.579716 81.699865 10.151632 81.572723 9.80673 C 81.444229 9.461829 81.249461 9.202815 80.988419 9.029688 C 80.726023 8.856561 80.389913 8.769998 79.980087 8.769998 L 79.980087 8.769998 C 79.405253 8.769998 78.945384 8.907958 78.600479 9.183878 C 78.25558 9.458448 78.012797 9.857452 77.872131 10.38089 C 77.731466 10.905681 77.661133 11.551526 77.661133 12.318425 L 77.661133 12.318425 L 77.661133 17.398617 L 75.244797 17.398617 L 75.244797 7.006943 L 77.105232 7.006943 L 77.450134 8.36829 L 77.584038 8.36829 C 77.801796 8.009861 78.066897 7.71568 78.379341 7.485746 C 78.693133 7.255813 79.044797 7.086744 79.434334 6.978539 C 79.82387 6.870333 80.216787 6.816231 80.613083 6.816231 L 80.613083 6.816231 C 81.393504 6.816231 82.052198 6.946753 82.589165 7.207798 C 83.126127 7.470193 83.528511 7.875959 83.796318 8.425097 L 83.796318 8.425097 L 83.98703 8.425097 C 84.307587 7.863785 84.758664 7.455313 85.340263 7.19968 C 85.921862 6.944047 86.525777 6.816231 87.152008 6.816231 Z M 97.906845 6.816231 L 97.906845 6.816231 C 98.840108 6.816231 99.642174 7.004236 100.313042 7.380247 C 100.983905 7.757611 101.504639 8.294575 101.875244 8.991139 C 102.245839 9.687706 102.431137 10.534406 102.431137 11.531238 L 102.431137 11.531238 L 102.431137 12.758681 L 95.567604 12.758681 C 95.5933 13.704117 95.855695 14.435848 96.35479 14.953876 C 96.852531 15.471905 97.542333 15.73092 98.424194 15.73092 L 98.424194 15.73092 C 99.101827 15.73092 99.705742 15.663292 100.235939 15.528036 C 100.766146 15.394133 101.312581 15.199365 101.875244 14.943732 L 101.875244 14.943732 L 101.875244 16.881268 C 101.363978 17.123374 100.833776 17.30191 100.284637 17.416878 C 99.734146 17.531845 99.07545 17.589329 98.308548 17.589329 L 98.308548 17.589329 C 97.299545 17.589329 96.402128 17.394561 95.616295 17.005026 C 94.830462 16.615489 94.217079 16.024423 93.776146 15.231826 C 93.335208 14.43923 93.114738 13.455247 93.114738 12.279877 L 93.114738 12.279877 C 93.114738 11.090981 93.315595 10.090767 93.717308 9.279233 C 94.120369 8.467701 94.679649 7.854318 95.395149 7.439085 C 96.110649 7.023849 96.947881 6.816231 97.906845 6.816231 Z M 97.906845 8.597546 L 97.906845 8.597546 C 97.268443 8.597546 96.747709 8.805163 96.344643 9.220398 C 95.941582 9.636985 95.701505 10.25375 95.624413 11.070693 L 95.624413 11.070693 L 100.091896 11.070693 C 100.091896 10.585125 100.012095 10.157041 99.852493 9.786441 C 99.692891 9.415842 99.453489 9.125044 99.134285 8.914045 C 98.815086 8.703046 98.40594 8.597546 97.906845 8.597546 Z M 109.045128 6.816231 L 109.045128 6.816231 C 109.978391 6.816231 110.780457 7.004236 111.451324 7.380247 C 112.122192 7.757611 112.642927 8.294575 113.013527 8.991139 C 113.384122 9.687706 113.56942 10.534406 113.56942 11.531238 L 113.56942 11.531238 L 113.56942 12.758681 L 106.705887 12.758681 C 106.731588 13.704117 106.993983 14.435848 107.493073 14.953876 C 107.990814 15.471905 108.680616 15.73092 109.562477 15.73092 L 109.562477 15.73092 C 110.24011 15.73092 110.844025 15.663292 111.374222 15.528036 C 111.905782 15.394133 112.452217 15.199365 113.013527 14.943732 L 113.013527 14.943732 L 113.013527 16.881268 C 112.502261 17.123374 111.972059 17.30191 111.42292 17.416878 C 110.873787 17.531845 110.215769 17.589329 109.448868 17.589329 L 109.448868 17.589329 C 108.438507 17.589329 107.54041 17.394561 106.754578 17.005026 C 105.968745 16.615489 105.355362 16.024423 104.914429 15.231826 C 104.473495 14.43923 104.253029 13.455247 104.253029 12.279877 L 104.253029 12.279877 C 104.253029 11.090981 104.454559 10.090767 104.85762 9.279233 C 105.259328 8.467701 105.817935 7.854318 106.53344 7.439085 C 107.250287 7.023849 108.087517 6.816231 109.045128 6.816231 Z M 109.045128 8.597546 L 109.045128 8.597546 C 108.406726 8.597546 107.885991 8.805163 107.482925 9.220398 C 107.07987 9.636985 106.840467 10.25375 106.764717 11.070693 L 106.764717 11.070693 L 111.232208 11.070693 C 111.232208 10.585125 111.151731 10.157041 110.990776 9.786441 C 110.831179 9.415842 110.591777 9.125044 110.272568 8.914045 C 109.953369 8.703046 109.544223 8.597546 109.045128 8.597546 Z"/>
        </g>
    </g>
    <g id="Original-Logo-copy">
        <g id="g1">
            <g id="Layer3"/>
            <path id="path1" fill="#1dbf73" stroke="none" d="M 20.92025 0 L 3.075847 0 C 1.348971 0 -0.073164 1.422138 -0.073164 3.182873 L -0.073164 16.557709 C -0.073164 18.318447 1.348971 19.70672 3.075847 19.70672 L 15.23171 19.70672 L 18.617744 23.092754 C 19.227234 23.702244 20.006018 24.006987 20.852528 24.006987 L 20.92025 24.006987 C 22.680986 24.006987 24.06926 22.58485 24.06926 20.857973 L 24.06926 3.182873 C 24.103119 1.422138 22.680986 0 20.92025 0 Z"/>
            <path id="path2" fill="#168a53" stroke="none" d="M 2.195479 12.189725 C 1.111948 12.731489 0.23158 13.577998 -0.073164 14.898553 L -0.073164 16.523849 C -0.073164 18.284588 1.348971 19.672861 3.075847 19.672861 L 15.23171 19.672861 L 9.814057 13.7473 C 7.884017 11.614099 4.768865 10.903032 2.195479 12.189725 Z"/>
            <path id="path3" fill="#62d49f" stroke="none" d="M 20.92025 0 L 3.075847 0 C 1.348971 0 -0.073164 1.422138 -0.073164 3.182873 L -0.073164 8.228066 C -0.073164 6.027143 1.687574 4.266403 3.888497 4.266403 L 9.306152 4.266403 C 11.540932 4.266403 13.640276 5.214495 15.130133 6.839792 L 24.06926 16.659288 L 24.06926 3.182873 C 24.103119 1.422138 22.680986 0 20.92025 0 Z"/>
        </g>
    </g>
</svg>
