<?xml version="1.0" encoding="UTF-8"?>
<!-- Generated by Pixelmator Pro 3.7.1 -->
<svg width="177" height="24" viewBox="0 0 177 24" xmlns="http://www.w3.org/2000/svg">
    <text id="Documentation" xml:space="preserve" x="35" y="18" font-family="SF Pro" font-size="18" font-weight="600" fill="#ffffff" letter-spacing="0.1">Documentation</text>
    <g id="Original-Logo-copy">
        <g id="Group">
            <g id="Layer3"/>
            <path id="Path" fill="#1dbf73" stroke="none" d="M 20.92025 0 L 3.075847 0 C 1.348971 0 -0.073164 1.422138 -0.073164 3.182873 L -0.073164 16.557709 C -0.073164 18.318447 1.348971 19.70672 3.075847 19.70672 L 15.23171 19.70672 L 18.617744 23.092754 C 19.227234 23.702244 20.006018 24.006987 20.852528 24.006987 L 20.92025 24.006987 C 22.680986 24.006987 24.06926 22.58485 24.06926 20.857973 L 24.06926 3.182873 C 24.103119 1.422138 22.680986 0 20.92025 0 Z"/>
            <path id="path1" fill="#168a53" stroke="none" d="M 2.195479 12.189725 C 1.111948 12.731489 0.23158 13.577998 -0.073164 14.898553 L -0.073164 16.523849 C -0.073164 18.284588 1.348971 19.672861 3.075847 19.672861 L 15.23171 19.672861 L 9.814057 13.7473 C 7.884017 11.614099 4.768865 10.903032 2.195479 12.189725 Z"/>
            <path id="path2" fill="#62d49f" stroke="none" d="M 20.92025 0 L 3.075847 0 C 1.348971 0 -0.073164 1.422138 -0.073164 3.182873 L -0.073164 8.228066 C -0.073164 6.027143 1.687574 4.266403 3.888497 4.266403 L 9.306152 4.266403 C 11.540932 4.266403 13.640276 5.214495 15.130133 6.839792 L 24.06926 16.659288 L 24.06926 3.182873 C 24.103119 1.422138 22.680986 0 20.92025 0 Z"/>
        </g>
    </g>
</svg>
