<?xml version="1.0" encoding="UTF-8"?>
<!-- Generated by Pixelmator Pro 3.7.1 -->
<svg width="177" height="24" viewBox="0 0 177 24" xmlns="http://www.w3.org/2000/svg">
    <text id="API" xml:space="preserve" x="118" y="17" font-family="Arial" font-size="16" font-weight="700" fill="#1eb100" letter-spacing="0.8">API</text>
    <g id="Group-copy">
        <g id="Group">
            <path id="Path" fill="#383539" stroke="none" d="M 37.896252 6.816231 L 37.896252 6.816231 C 39.109491 6.816231 40.086711 7.266632 40.827911 8.167434 C 41.570463 9.068236 41.941738 10.406589 41.941738 12.182492 L 41.941738 12.182492 C 41.941738 13.359215 41.768612 14.349961 41.422359 15.154731 C 41.077457 15.960853 40.598653 16.56815 39.985947 16.976622 C 39.371887 17.385093 38.65571 17.589329 37.837414 17.589329 L 37.837414 17.589329 C 37.339675 17.589329 36.898741 17.522377 36.514614 17.388474 C 36.131842 17.254571 35.805876 17.082121 35.536716 16.871122 C 35.268912 16.660124 35.038979 16.432894 34.846916 16.189434 L 34.846916 16.189434 L 34.694752 16.189434 C 34.744798 16.42072 34.78267 16.679735 34.808369 16.966476 C 34.834067 17.25457 34.846916 17.526434 34.846916 17.782068 L 34.846916 17.782068 L 34.846916 22.000008 L 32.430576 22.000008 L 32.430576 7.006943 L 34.386372 7.006943 L 34.73127 8.386548 L 34.846916 8.386548 C 35.038979 8.093045 35.272294 7.827944 35.546864 7.591248 C 35.82143 7.354549 36.153482 7.165867 36.543018 7.025202 C 36.933905 6.885888 37.384983 6.816231 37.896252 6.816231 Z M 37.204418 8.769998 L 37.204418 8.769998 C 36.643108 8.769998 36.189326 8.88226 35.843071 9.106784 C 35.498169 9.329954 35.249299 9.671474 35.096462 10.131342 C 34.943623 10.592564 34.860441 11.168077 34.846916 11.85788 L 34.846916 11.85788 L 34.846916 12.164233 C 34.846916 12.905433 34.92063 13.531665 35.068058 14.042932 C 35.214135 14.554197 35.463005 14.944409 35.814667 15.213567 C 36.166331 15.481373 36.642431 15.615276 37.242966 15.615276 L 37.242966 15.615276 C 37.754232 15.615276 38.172848 15.47461 38.498814 15.193278 C 38.82478 14.911947 39.067562 14.512267 39.227161 13.994239 C 39.386763 13.477563 39.466564 12.861474 39.466564 12.145973 L 39.466564 12.145973 C 39.466564 11.072046 39.284646 10.240901 38.920811 9.65254 C 38.556973 9.064178 37.984842 8.769998 37.204418 8.769998 Z M 44.433144 7.006943 L 46.849483 7.006943 L 46.849483 17.398617 L 44.433144 17.398617 L 44.433144 7.006943 Z M 45.640301 3 L 45.640301 3 C 45.998727 3 46.311844 3.092649 46.579651 3.277948 C 46.848806 3.46325 46.983383 3.792597 46.983383 4.265991 L 46.983383 4.265991 C 46.983383 4.725859 46.848806 5.05453 46.579651 5.252005 C 46.311844 5.45083 45.998727 5.550243 45.640301 5.550243 L 45.640301 5.550243 C 45.2697 5.550243 44.953879 5.45083 44.692837 5.252005 C 44.430439 5.05453 44.29924 4.725859 44.29924 4.265991 L 44.29924 4.265991 C 44.29924 3.792597 44.430439 3.46325 44.692837 3.277948 C 44.953879 3.092649 45.2697 3 45.640301 3 Z M 55.496365 6.816231 L 55.496365 6.816231 C 56.658207 6.816231 57.568476 7.116498 58.227173 7.717033 C 58.885867 8.317568 59.215214 9.288702 59.215214 10.630437 L 59.215214 10.630437 L 59.215214 17.398617 L 56.798874 17.398617 L 56.798874 11.10924 C 56.798874 10.330169 56.645358 9.745866 56.338326 9.35633 C 56.031298 8.965442 55.545732 8.769998 54.881626 8.769998 L 54.881626 8.769998 C 53.910493 8.769998 53.245714 9.073646 52.887287 9.680943 C 52.530211 10.28824 52.351673 11.167401 52.351673 12.318425 L 52.351673 12.318425 L 52.351673 17.398617 L 49.935337 17.398617 L 49.935337 7.006943 L 51.795773 7.006943 L 52.140678 8.36829 L 52.274578 8.36829 C 52.504513 8.009861 52.785844 7.71568 53.118572 7.485746 C 53.449947 7.255813 53.820546 7.086744 54.23037 6.978539 C 54.638842 6.870333 55.060841 6.816231 55.496365 6.816231 Z M 65.733849 6.816231 L 65.733849 6.816231 C 66.38578 6.816231 66.973465 6.944047 67.496902 7.19968 C 68.021693 7.455313 68.462626 7.838763 68.819702 8.350028 L 68.819702 8.350028 L 68.915054 8.350028 L 69.146339 7.006943 L 71.158936 7.006943 L 71.158936 17.475714 C 71.158936 18.459021 70.973638 19.286107 70.603043 19.956974 C 70.232442 20.627841 69.676542 21.136401 68.935341 21.482656 C 68.194145 21.827557 67.267647 22.000008 66.155846 22.000008 L 66.155846 22.000008 C 65.413292 22.000008 64.7289 21.951992 64.102669 21.855961 C 63.476435 21.75993 62.882664 21.596947 62.321354 21.367014 L 62.321354 21.367014 L 62.321354 19.372671 C 62.908362 19.628304 63.5373 19.826454 64.208168 19.967119 C 64.880389 20.107785 65.580335 20.178118 66.308006 20.178118 L 66.308006 20.178118 C 67.100604 20.178118 67.704519 19.95427 68.119751 19.506575 C 68.534988 19.060231 68.742607 18.421149 68.742607 17.589329 L 68.742607 17.589329 L 68.742607 17.321522 C 68.742607 17.129459 68.752075 16.905612 68.771011 16.649981 C 68.791295 16.394348 68.807526 16.190111 68.819702 16.037271 L 68.819702 16.037271 L 68.742607 16.037271 C 68.385531 16.574236 67.95136 16.967154 67.440094 17.216024 C 66.928828 17.464894 66.340467 17.589329 65.675011 17.589329 L 65.675011 17.589329 C 64.410375 17.589329 63.420306 17.116611 62.704803 16.171175 C 61.987951 15.22574 61.629524 13.909029 61.629524 12.221041 L 61.629524 12.221041 C 61.629524 10.534404 61.994038 9.211605 62.723064 8.252645 C 63.452091 7.295035 64.455686 6.816231 65.733849 6.816231 Z M 66.366844 8.790287 L 66.366844 8.790287 C 65.879926 8.790287 65.467397 8.921484 65.129257 9.183878 C 64.791117 9.444922 64.535484 9.831077 64.362358 10.342341 C 64.189232 10.853607 64.102669 11.492689 64.102669 12.259588 L 64.102669 12.259588 C 64.102669 13.384914 64.294731 14.234994 64.678856 14.80983 C 65.061628 15.384665 65.636464 15.672083 66.403366 15.672083 L 66.403366 15.672083 C 66.838888 15.672083 67.210162 15.617981 67.517189 15.509776 C 67.822868 15.401572 68.075122 15.222359 68.273949 14.972136 C 68.471418 14.723266 68.621549 14.404063 68.724342 14.014526 C 68.825783 13.624991 68.876503 13.154979 68.876503 12.604489 L 68.876503 12.604489 L 68.876503 12.241328 C 68.876503 11.41086 68.787237 10.742698 68.608704 10.236843 C 68.430166 9.73234 68.158979 9.365122 67.795143 9.135188 C 67.429949 8.905254 66.95385 8.790287 66.366844 8.790287 Z M 86.152008 6.816231 L 86.152008 6.816231 C 87.327377 6.816231 88.211947 7.116498 88.805717 7.717033 C 89.400846 8.317568 89.69841 9.288702 89.69841 10.630437 L 89.69841 10.630437 L 89.69841 17.398617 L 87.282066 17.398617 L 87.282066 11.090981 C 87.282066 10.324083 87.141401 9.745866 86.860069 9.35633 C 86.578738 8.965442 86.131719 8.769998 85.519012 8.769998 L 85.519012 8.769998 C 84.675018 8.769998 84.074486 9.045243 83.717415 9.595734 C 83.358986 10.14487 83.179771 10.943553 83.179771 11.991783 L 83.179771 11.991783 L 83.179771 17.398617 L 80.763435 17.398617 L 80.763435 11.090981 C 80.763435 10.579716 80.699865 10.151632 80.572723 9.80673 C 80.444229 9.461829 80.249461 9.202815 79.988419 9.029688 C 79.726023 8.856561 79.389913 8.769998 78.980087 8.769998 L 78.980087 8.769998 C 78.405253 8.769998 77.945384 8.907958 77.600479 9.183878 C 77.25558 9.458448 77.012797 9.857452 76.872131 10.38089 C 76.731466 10.905681 76.661133 11.551526 76.661133 12.318425 L 76.661133 12.318425 L 76.661133 17.398617 L 74.244797 17.398617 L 74.244797 7.006943 L 76.105232 7.006943 L 76.450134 8.36829 L 76.584038 8.36829 C 76.801796 8.009861 77.066897 7.71568 77.379341 7.485746 C 77.693133 7.255813 78.044797 7.086744 78.434334 6.978539 C 78.82387 6.870333 79.216787 6.816231 79.613083 6.816231 L 79.613083 6.816231 C 80.393504 6.816231 81.052198 6.946753 81.589165 7.207798 C 82.126127 7.470193 82.528511 7.875959 82.796318 8.425097 L 82.796318 8.425097 L 82.98703 8.425097 C 83.307587 7.863785 83.758664 7.455313 84.340263 7.19968 C 84.921862 6.944047 85.525777 6.816231 86.152008 6.816231 Z M 96.906845 6.816231 L 96.906845 6.816231 C 97.840108 6.816231 98.642174 7.004236 99.313042 7.380247 C 99.983905 7.757611 100.504639 8.294575 100.875244 8.991139 C 101.245839 9.687706 101.431137 10.534406 101.431137 11.531238 L 101.431137 11.531238 L 101.431137 12.758681 L 94.567604 12.758681 C 94.5933 13.704117 94.855695 14.435848 95.35479 14.953876 C 95.852531 15.471905 96.542333 15.73092 97.424194 15.73092 L 97.424194 15.73092 C 98.101827 15.73092 98.705742 15.663292 99.235939 15.528036 C 99.766146 15.394133 100.312581 15.199365 100.875244 14.943732 L 100.875244 14.943732 L 100.875244 16.881268 C 100.363978 17.123374 99.833776 17.30191 99.284637 17.416878 C 98.734146 17.531845 98.07545 17.589329 97.308548 17.589329 L 97.308548 17.589329 C 96.299545 17.589329 95.402128 17.394561 94.616295 17.005026 C 93.830462 16.615489 93.217079 16.024423 92.776146 15.231826 C 92.335208 14.43923 92.114738 13.455247 92.114738 12.279877 L 92.114738 12.279877 C 92.114738 11.090981 92.315595 10.090767 92.717308 9.279233 C 93.120369 8.467701 93.679649 7.854318 94.395149 7.439085 C 95.110649 7.023849 95.947881 6.816231 96.906845 6.816231 Z M 96.906845 8.597546 L 96.906845 8.597546 C 96.268443 8.597546 95.747709 8.805163 95.344643 9.220398 C 94.941582 9.636985 94.701505 10.25375 94.624413 11.070693 L 94.624413 11.070693 L 99.091896 11.070693 C 99.091896 10.585125 99.012095 10.157041 98.852493 9.786441 C 98.692891 9.415842 98.453489 9.125044 98.134285 8.914045 C 97.815086 8.703046 97.40594 8.597546 96.906845 8.597546 Z M 108.045128 6.816231 L 108.045128 6.816231 C 108.978391 6.816231 109.780457 7.004236 110.451324 7.380247 C 111.122192 7.757611 111.642927 8.294575 112.013527 8.991139 C 112.384122 9.687706 112.56942 10.534406 112.56942 11.531238 L 112.56942 11.531238 L 112.56942 12.758681 L 105.705887 12.758681 C 105.731588 13.704117 105.993983 14.435848 106.493073 14.953876 C 106.990814 15.471905 107.680616 15.73092 108.562477 15.73092 L 108.562477 15.73092 C 109.24011 15.73092 109.844025 15.663292 110.374222 15.528036 C 110.905782 15.394133 111.452217 15.199365 112.013527 14.943732 L 112.013527 14.943732 L 112.013527 16.881268 C 111.502261 17.123374 110.972059 17.30191 110.42292 17.416878 C 109.873787 17.531845 109.215769 17.589329 108.448868 17.589329 L 108.448868 17.589329 C 107.438507 17.589329 106.54041 17.394561 105.754578 17.005026 C 104.968745 16.615489 104.355362 16.024423 103.914429 15.231826 C 103.473495 14.43923 103.253029 13.455247 103.253029 12.279877 L 103.253029 12.279877 C 103.253029 11.090981 103.454559 10.090767 103.85762 9.279233 C 104.259328 8.467701 104.817935 7.854318 105.53344 7.439085 C 106.250287 7.023849 107.087517 6.816231 108.045128 6.816231 Z M 108.045128 8.597546 L 108.045128 8.597546 C 107.406726 8.597546 106.885991 8.805163 106.482925 9.220398 C 106.07987 9.636985 105.840467 10.25375 105.764717 11.070693 L 105.764717 11.070693 L 110.232208 11.070693 C 110.232208 10.585125 110.151731 10.157041 109.990776 9.786441 C 109.831179 9.415842 109.591777 9.125044 109.272568 8.914045 C 108.953369 8.703046 108.544223 8.597546 108.045128 8.597546 Z"/>
        </g>
    </g>
    <g id="Original-Logo-copy">
        <g id="g1">
            <g id="Layer3"/>
            <path id="path1" fill="#1dbf73" stroke="none" d="M 20.92025 0 L 3.075847 0 C 1.348971 0 -0.073164 1.422138 -0.073164 3.182873 L -0.073164 16.557709 C -0.073164 18.318447 1.348971 19.70672 3.075847 19.70672 L 15.23171 19.70672 L 18.617744 23.092754 C 19.227234 23.702244 20.006018 24.006987 20.852528 24.006987 L 20.92025 24.006987 C 22.680986 24.006987 24.06926 22.58485 24.06926 20.857973 L 24.06926 3.182873 C 24.103119 1.422138 22.680986 0 20.92025 0 Z"/>
            <path id="path2" fill="#168a53" stroke="none" d="M 2.195479 12.189725 C 1.111948 12.731489 0.23158 13.577998 -0.073164 14.898553 L -0.073164 16.523849 C -0.073164 18.284588 1.348971 19.672861 3.075847 19.672861 L 15.23171 19.672861 L 9.814057 13.7473 C 7.884017 11.614099 4.768865 10.903032 2.195479 12.189725 Z"/>
            <path id="path3" fill="#62d49f" stroke="none" d="M 20.92025 0 L 3.075847 0 C 1.348971 0 -0.073164 1.422138 -0.073164 3.182873 L -0.073164 8.228066 C -0.073164 6.027143 1.687574 4.266403 3.888497 4.266403 L 9.306152 4.266403 C 11.540932 4.266403 13.640276 5.214495 15.130133 6.839792 L 24.06926 16.659288 L 24.06926 3.182873 C 24.103119 1.422138 22.680986 0 20.92025 0 Z"/>
        </g>
    </g>
</svg>
